SplineFontDB: 3.0
FontName: Twelve-Bold
FullName: Twelve2 Bold
FamilyName: Twelve2
Weight: Bold
FONDName: Twelve2
ItalicAngle: 0
UnderlinePosition: -100
UnderlineWidth: 50
Ascent: 750
Descent: 250
UFOAscent: 750
UFODescent: -250
LayerCount: 2
Layer: 0 0 "Back"  1
Layer: 1 0 "Fore"  0
NeedsXUIDChange: 1
FSType: 1
OS2Version: 0
OS2_WeightWidthSlopeOnly: 0
OS2_UseTypoMetrics: 0
CreationTime: 1315764200
ModificationTime: 1315765454
PfmFamily: 0
TTFWeight: 700
TTFWidth: 0
LineGap: 9
VLineGap: 0
Panose: 0 0 0 0 0 0 0 0 0 0
OS2TypoAscent: 750
OS2TypoAOffset: 0
OS2TypoDescent: -250
OS2TypoDOffset: 0
OS2TypoLinegap: 0
OS2WinAscent: 0
OS2WinAOffset: 0
OS2WinDescent: 0
OS2WinDOffset: 0
HheadAscent: 750
HheadAOffset: 0
HheadDescent: -250
HheadDOffset: 0
OS2SubXSize: 700
OS2SubYSize: 650
OS2SubXOff: 0
OS2SubYOff: 140
OS2SupXSize: 700
OS2SupYSize: 650
OS2SupXOff: 0
OS2SupYOff: 477
OS2StrikeYSize: 50
OS2StrikeYPos: 250
OS2Vendor: 'pyrs'
OS2CodePages: 00000000.00000000
OS2UnicodeRanges: 00000000.00000000.00000000.00000000
DEI: 91125
LangName: 1033 "" "" "" "" "" "" "" "" "" "" "" "" "" "" "" "" "" "" "Twelve2 Bold" 
PickledData: "(dp1
S'org.robofab.glyphOrder'
p2
(S'a'
S'E'
S'D'
S'r'
S'e'
S'v'
S'i'
S'R'
S'P'
S'l'
S't'
S'N'
S'I'
S'M'
S'F'
S'U'
S'B'
S'h'
S'c'
S'n'
S'd'
S'H'
S'G'
S's'
S'S'
S'o'
S'u'
S'z'
S'w'
S'p'
S'space'
S'T'
S'L'
S'C'
S'O'
S'm'
S'b'
S'q'
S'Q'
S'acute'
S'Eacute'
S'grave'
S'A'
S'V'
S'W'
S'Y'
S'f'
S'x'
S'K'
S'g'
S'y'
S'Z'
S'k'
S'j'
S'circumflex'
S'ecircumflex'
S'X'
S'J'
S'bracketleft'
S'bracketright'
S'slash'
S'one'
S'eight'
S'period'
S'comma'
S'plus'
S'parenright'
S'two'
S'parenleft'
S'backslash'
S'underscore'
S'semicolon'
S'colon'
S'equal'
S'zero'
S'percent'
S'quoteright'
S'quoteleft'
S'quotedblleft'
S'quotedblright'
S'OE'
S'oe'
S'mu'
tp3
s."
Encoding: UnicodeBmp
Compacted: 1
UnicodeInterp: none
NameList: Adobe Glyph List
DisplaySize: -48
AntiAlias: 1
FitToEm: 1
WidthSeparation: 130
WinInfo: 0 27 4
BeginPrivate: 4
BlueFuzz 1 1
BlueScale 8 0.039625
BlueShift 1 7

StartChar: A
Encoding: 65 65 0
Width: 882
VWidth: 0
Flags: W
LayerCount: 2
Fore
SplineSet
20 0 m 1
 216 0 l 1
 275 140 l 1
 574 140 l 1
 633 0 l 1
 863 0 l 1
 548 709 l 1
 335 709 l 1
 20 0 l 1
426 493 m 1
 523 262 l 1
 327 262 l 1
 426 493 l 1
EndSplineSet
EndChar

StartChar: B
Encoding: 66 66 1
Width: 824
VWidth: 0
Flags: W
HStem: 0 113<414 546.505> 583 126<463 518.363>
VStem: 545 206<441.787 554.051> 579 206<142.737 254.927>
LayerCount: 2
Fore
SplineSet
63 0 m 1xe0
 452 0 l 2
 586 0 785 20 785 177 c 0xd0
 785 291 676 337 578 355 c 1
 659 368 751 413 751 516 c 0
 751 631 629 709 521 709 c 2
 63 709 l 1
 63 0 l 1xe0
258 297 m 1
 487 297 l 2
 541 297 579 249 579 198 c 0
 579 109 480 113 414 113 c 2
 258 113 l 1
 258 297 l 1
269 583 m 1
 463 583 l 2
 516 583 545 540 545 494 c 0xe0
 545 465 521 423 487 423 c 2
 269 423 l 1
 269 583 l 1
EndSplineSet
EndChar

StartChar: C
Encoding: 67 67 2
Width: 794
VWidth: 0
Flags: W
HStem: -23 128<339.717 524.376> 603 128<344.008 517.829>
VStem: 32 213<212.277 485.226>
LayerCount: 2
Fore
SplineSet
32 350 m 0
 32 121 189 -23 425 -23 c 0
 597 -23 711 47 757 205 c 1
 601 246 l 1
 574 172 553 105 434 105 c 0
 279 105 245 223 245 351 c 0
 245 483 289 603 433 603 c 0
 545 603 569 532 594 454 c 1
 750 495 l 1
 705 660 597 731 430 731 c 0
 194 731 32 585 32 350 c 0
EndSplineSet
EndChar

StartChar: D
Encoding: 68 68 3
Width: 857
VWidth: 0
Flags: W
HStem: 0 124<256 497.735> 586 123<334 484.759>
VStem: 602 211<224.14 483.097>
LayerCount: 2
Fore
SplineSet
63 709 m 1
 63 0 l 1
 422 0 l 2
 663 0 813 140 813 351 c 0
 813 571 662 709 404 709 c 2
 63 709 l 1
255 586 m 1
 334 586 l 2
 523 586 602 538 602 351 c 0
 602 123 483 119 256 124 c 1
 255 586 l 1
EndSplineSet
EndChar

StartChar: E
Encoding: 69 69 4
Width: 784
VWidth: 0
Flags: W
LayerCount: 2
Fore
SplineSet
63 0 m 1
 742 0 l 1
 742 136 l 1
 267 136 l 1
 267 301 l 1
 646 301 l 1
 646 422 l 1
 267 422 l 1
 267 582 l 1
 723 582 l 1
 723 709 l 1
 63 709 l 1
 63 0 l 1
EndSplineSet
EndChar

StartChar: F
Encoding: 70 70 6
Width: 714
VWidth: 0
Flags: HW
LayerCount: 2
Fore
SplineSet
63 709 m 1
 63 0 l 1
 252 0 l 1
 252 258 l 1
 590 258 l 1
 590 395 l 1
 252 395 l 1
 252 560 l 1
 693 560 l 1
 693 709 l 1
 63 709 l 1
EndSplineSet
EndChar

StartChar: G
Encoding: 71 71 7
Width: 828
VWidth: 0
Flags: W
HStem: -23 115<343.478 524.656> 603 128<347.41 530.717>
VStem: 32 213<203.267 483.193> 592 179<161.162 255>
LayerCount: 2
Fore
SplineSet
32 348 m 0
 32 98 188 -23 407 -23 c 0
 519 -23 602 -1 671 92 c 1
 722 -21 l 1
 771 -21 l 1
 771 361 l 1
 438 361 l 1
 438 255 l 1
 592 255 l 1
 592 144 525 92 444 92 c 0
 293 92 245 188 245 338 c 0
 245 473 273 603 444 603 c 0
 554 603 578 535 604 464 c 1
 760 505 l 1
 714 663 606 731 434 731 c 0
 198 731 32 583 32 348 c 0
EndSplineSet
EndChar

StartChar: H
Encoding: 72 72 8
Width: 830
VWidth: 0
Flags: HW
LayerCount: 2
Fore
SplineSet
63 709 m 1
 63 0 l 1
 259 0 l 1
 259 294 l 1
 566 294 l 1
 566 0 l 1
 764 0 l 1
 764 709 l 1
 574 709 l 1
 574 434 l 1
 259 434 l 1
 259 709 l 1
 63 709 l 1
EndSplineSet
EndChar

StartChar: I
Encoding: 73 73 9
Width: 325
VWidth: 0
Flags: W
VStem: 63 196
LayerCount: 2
Fore
SplineSet
259 709 m 1
 63 709 l 1
 63 0 l 1
 259 0 l 1
 259 709 l 1
EndSplineSet
EndChar

StartChar: J
Encoding: 74 74 10
Width: 488
VWidth: 0
Flags: W
HStem: -88 105<179.439 229.177>
VStem: 25 149<18.6524 92.272> 234 189<19.9885 168.093>
LayerCount: 2
Fore
SplineSet
423 709 m 1
 227 709 l 1
 227 169 l 2
 227 150 234 109 234 75 c 0
 234 42 228 17 204 17 c 0
 184 17 174 33 174 65 c 0
 174 73 175 84 177 93 c 1
 40 93 l 1
 31 71 25 47 25 25 c 0
 25 -38 84 -88 225 -88 c 0
 298 -88 423 -56 423 74 c 2
 423 709 l 1
EndSplineSet
EndChar

StartChar: K
Encoding: 75 75 11
Width: 801
VWidth: 0
Flags: HW
LayerCount: 2
Fore
SplineSet
750 709 m 1
 535 709 l 1
 259 396 l 1
 259 709 l 1
 63 709 l 1
 63 0 l 1
 259 0 l 1
 259 315 l 1
 543 0 l 1
 788 0 l 1
 443 371 l 1
 750 709 l 1
EndSplineSet
EndChar

StartChar: L
Encoding: 76 76 12
Width: 610
VWidth: 0
Flags: W
LayerCount: 2
Fore
SplineSet
63 0 m 1
 571 0 l 1
 571 140 l 1
 259 140 l 1
 259 709 l 1
 63 709 l 1
 63 0 l 1
EndSplineSet
EndChar

StartChar: M
Encoding: 77 77 13
Width: 970
VWidth: 0
Flags: HW
HStem: 538 20G<218 224.308 730.903 738>
LayerCount: 2
Fore
SplineSet
63 709 m 1
 63 0 l 1
 218 0 l 1
 218 558 l 1
 394 0 l 1
 540 0 l 1
 738 558 l 1
 738 0 l 1
 904 0 l 1
 904 709 l 1
 641 709 l 1
 486 271 l 1
 356 709 l 1
 63 709 l 1
EndSplineSet
EndChar

StartChar: N
Encoding: 78 78 14
Width: 839
VWidth: 0
Flags: W
LayerCount: 2
Fore
SplineSet
63 709 m 1
 63 0 l 1
 233 0 l 1
 233 476 l 1
 585 0 l 1
 773 0 l 1
 773 709 l 1
 611 709 l 1
 611 279 l 1
 300 709 l 1
 63 709 l 1
EndSplineSet
EndChar

StartChar: O
Encoding: 79 79 15
Width: 863
VWidth: 0
Flags: W
HStem: -23 128<338.029 511.971> 603 128<340.35 509.65>
VStem: 32 213<212.277 485.226> 605 213<212.277 485.226>
LayerCount: 2
Fore
SplineSet
425 105 m 0
 280 105 245 223 245 351 c 0
 245 483 291 603 425 603 c 0
 559 603 605 483 605 351 c 0
 605 223 570 105 425 105 c 0
425 -23 m 0
 661 -23 818 121 818 350 c 0
 818 585 661 731 425 731 c 0
 189 731 32 585 32 350 c 0
 32 121 189 -23 425 -23 c 0
EndSplineSet
EndChar

StartChar: OE
Encoding: 338 338 16
Width: 1135
VWidth: 0
Flags: HW
LayerCount: 2
Fore
SplineSet
494 0 m 1
 1093 0 l 1
 1093 136 l 1
 698 136 l 1
 698 301 l 1
 1007 301 l 1
 1007 422 l 1
 698 422 l 1
 698 583 l 1
 1074 583 l 1
 1074 709 l 1
 494 709 l 1
 493 709 l 2
 215 709 30 573 30 350 c 0
 30 133 215 0 493 0 c 2
 494 0 l 1
243 351 m 0
 243 473 310 581 493 581 c 2
 494 581 l 1
 494 128 l 1
 493 128 l 2
 292 128 243 233 243 351 c 0
EndSplineSet
EndChar

StartChar: P
Encoding: 80 80 17
Width: 801
VWidth: 0
Flags: W
HStem: 235 121<427 511.115> 593 116<427 504.388>
VStem: 554 202<396.763 549.372>
LayerCount: 2
Fore
SplineSet
63 709 m 1
 63 0 l 1
 250 0 l 1
 250 235 l 1
 484 235 l 2
 630 235 756 292 756 467 c 0
 756 628 630 709 484 709 c 2
 63 709 l 1
256 593 m 1
 427 593 l 2
 525 593 554 537 554 467 c 0
 554 394 514 356 427 356 c 2
 256 356 l 1
 256 593 l 1
EndSplineSet
EndChar

StartChar: Q
Encoding: 81 81 18
Width: 863
VWidth: 0
Flags: HW
LayerCount: 2
Fore
SplineSet
425 105 m 0
 280 105 245 223 245 351 c 0
 245 483 291 603 425 603 c 0
 559 603 605 483 605 351 c 0
 605 223 570 105 425 105 c 0
425 -23 m 0
 661 -23 818 121 818 350 c 0
 818 585 661 731 425 731 c 0
 189 731 32 585 32 350 c 0
 32 121 189 -23 425 -23 c 0
EndSplineSet
EndChar

StartChar: R
Encoding: 82 82 19
Width: 818
VWidth: 0
Flags: W
HStem: 595 114<439 534.026>
VStem: 567 191<421.205 565.452>
LayerCount: 2
Fore
SplineSet
63 709 m 1
 63 0 l 1
 255 0 l 1
 255 259 l 1
 441 259 l 2
 516 259 486 65 567 0 c 1
 800 0 l 1
 701 58 735 287 585 326 c 1
 688 344 758 399 758 509 c 0
 758 623 678 709 527 709 c 2
 63 709 l 1
255 595 m 1
 439 595 l 2
 511 595 567 586 567 492 c 0
 567 447 546 394 489 394 c 2
 255 394 l 1
 255 595 l 1
EndSplineSet
EndChar

StartChar: S
Encoding: 83 83 20
Width: 743
VWidth: 0
Flags: W
HStem: -23 144<280.669 491.4> 595 136<249.695 473.172>
VStem: 55 179<497.767 575.447> 512 192<139.569 218.037>
LayerCount: 2
Fore
SplineSet
26 98 m 1
 153 14 281 -23 427 -23 c 0
 560 -23 704 57 704 203 c 0
 704 467 234 408 234 540 c 0
 234 579 277 595 334 595 c 0
 428 595 562 554 615 509 c 1
 685 620 l 1
 579 699 468 729 337 731 c 1
 173 731 55 658 55 509 c 0
 55 250 512 301 512 184 c 0
 512 139 471 121 412 121 c 0
 320 121 185 165 95 222 c 1
 26 98 l 1
EndSplineSet
EndChar

StartChar: T
Encoding: 84 84 21
Width: 704
VWidth: 0
Flags: W
LayerCount: 2
Fore
SplineSet
14 709 m 1
 14 568 l 1
 251 568 l 1
 251 0 l 1
 447 0 l 1
 447 568 l 1
 684 568 l 1
 684 709 l 1
 14 709 l 1
EndSplineSet
EndChar

StartChar: U
Encoding: 85 85 22
Width: 798
VWidth: 0
Flags: W
HStem: -17 148<308.652 501.269>
VStem: 53 195<195.424 301> 562 177<195.424 301>
LayerCount: 2
Fore
SplineSet
400 -17 m 0
 606 -17 739 73 739 301 c 2
 739 709 l 1
 562 709 l 1
 562 290 l 2
 562 191 528 131 407 131 c 0
 283 131 248 191 248 290 c 2
 248 709 l 1
 53 709 l 1
 53 301 l 2
 53 73 195 -17 400 -17 c 0
EndSplineSet
EndChar

StartChar: V
Encoding: 86 86 23
Width: 799
VWidth: 0
Flags: W
LayerCount: 2
Fore
SplineSet
788 709 m 1
 592 709 l 1
 415 239 l 1
 235 709 l 1
 5 709 l 1
 290 0 l 1
 503 0 l 1
 788 709 l 1
EndSplineSet
EndChar

StartChar: W
Encoding: 87 87 24
Width: 1069
VWidth: 0
Flags: HW
LayerCount: 2
Fore
SplineSet
223 0 m 1
 405 0 l 1
 528 394 l 1
 650 0 l 1
 849 0 l 1
 1054 709 l 1
 872 709 l 1
 768 324 l 1
 655 709 l 1
 461 709 l 1
 348 323 l 1
 238 709 l 1
 8 709 l 1
 223 0 l 1
EndSplineSet
EndChar

StartChar: X
Encoding: 88 88 25
Width: 843
VWidth: 0
Flags: W
LayerCount: 2
Fore
SplineSet
814 709 m 1
 618 709 l 1
 445 505 l 1
 292 709 l 1
 36 709 l 1
 306 342 l 1
 16 0 l 1
 212 0 l 1
 397 218 l 1
 558 0 l 1
 824 0 l 1
 537 382 l 1
 814 709 l 1
EndSplineSet
EndChar

StartChar: Y
Encoding: 89 89 26
Width: 749
VWidth: 0
Flags: HW
LayerCount: 2
Fore
SplineSet
740 709 m 1
 559 709 l 1
 397 393 l 1
 233 709 l 1
 3 709 l 1
 275 204 l 1
 275 0 l 1
 471 0 l 1
 471 204 l 1
 740 709 l 1
EndSplineSet
EndChar

StartChar: Z
Encoding: 90 90 27
Width: 681
VWidth: 0
Flags: HW
LayerCount: 2
Fore
SplineSet
44 129 m 1
 44 0 l 1
 638 0 l 1
 638 140 l 1
 283 140 l 1
 627 580 l 1
 627 709 l 1
 64 709 l 1
 64 569 l 1
 392 569 l 1
 44 129 l 1
EndSplineSet
EndChar

StartChar: a
Encoding: 97 97 28
Width: 760
VWidth: 0
Flags: W
HStem: -23 98<249.769 369.868> -13 97<534.5 729.452> 467 89<255.555 417.038>
VStem: 38 199<86.7768 193.708> 59 166<344.476 437.131> 439 182<137.737 279 354.494 444.844>
LayerCount: 2
Fore
SplineSet
38 131 m 0x74
 38 15 159 -23 255 -23 c 0xb4
 330 -23 404 -3 447 66 c 1
 447 66 469 -13 600 -13 c 0
 702 -13 730 0 730 0 c 1
 730 88 l 1
 707 85 688 84 672 84 c 0
 638 84 621 94 621 133 c 2
 621 411 l 2
 621 542 429 556 338 556 c 0
 248 556 59 538 59 413 c 0
 59 379 80 334 80 334 c 1
 228 345 l 1
 225 356 225 371 225 380 c 0x6c
 225 437 261 467 340 467 c 0
 399 467 439 447 439 401 c 0
 439 262 38 353 38 131 c 0x74
237 137 m 1
 246 234 328 219 442 279 c 1
 442 165 420 75 303 75 c 0
 260 75 237 96 237 137 c 1
EndSplineSet
EndChar

StartChar: acute
Encoding: 180 180 29
Width: 381
VWidth: 0
Flags: HW
LayerCount: 2
Fore
SplineSet
130 594 m 1
 350 708 l 1
 174 708 l 1
 39 594 l 1
 130 594 l 1
EndSplineSet
EndChar

StartChar: b
Encoding: 98 98 30
Width: 692
VWidth: 0
Flags: HW
LayerCount: 2
Fore
SplineSet
466 268 m 0
 466 201 459 93 359 93 c 0
 262 93 244 187 244 268 c 0
 244 348 261 440 355 440 c 0
 447 440 466 346 466 268 c 0
649 270 m 0
 649 455 527 556 405 556 c 0
 330 556 265 531 226 463 c 1
 226 731 l 1
 63 731 l 1
 63 0 l 1
 186 0 l 1
 206 91 l 1
 235 24 315 -23 392 -23 c 0
 519 -23 649 41 649 270 c 0
EndSplineSet
EndChar

StartChar: backslash
Encoding: 92 92 31
Width: 513
VWidth: 0
Flags: HW
LayerCount: 2
Fore
SplineSet
203 750 m 1
 7 750 l 1
 307 -40 l 1
 503 -40 l 1
 203 750 l 1
EndSplineSet
EndChar

StartChar: bracketleft
Encoding: 91 91 32
Width: 511
VWidth: 0
Flags: HW
LayerCount: 2
Fore
SplineSet
65 -40 m 1
 463 -40 l 1
 463 100 l 1
 261 100 l 1
 261 610 l 1
 463 610 l 1
 463 750 l 1
 65 750 l 1
 65 -40 l 1
EndSplineSet
EndChar

StartChar: bracketright
Encoding: 93 93 33
Width: 513
VWidth: 0
Flags: HW
LayerCount: 2
Fore
SplineSet
448 750 m 1
 50 750 l 1
 50 610 l 1
 252 610 l 1
 252 100 l 1
 50 100 l 1
 50 -40 l 1
 448 -40 l 1
 448 750 l 1
EndSplineSet
EndChar

StartChar: c
Encoding: 99 99 34
Width: 696
VWidth: 0
Flags: W
HStem: -23 116<296.055 461.856> 444 112<292.092 441.621>
VStem: 32 201<158.944 376.233> 485 156<317 396.304>
LayerCount: 2
Fore
SplineSet
32 268 m 0
 32 50 208 -23 364 -23 c 0
 503 -23 655 40 655 170 c 0
 655 185 653 201 649 217 c 1
 511 217 l 1
 506 137 468 93 372 93 c 0
 270 93 233 166 233 268 c 0
 233 373 270 444 372 444 c 0
 458 444 483 383 485 317 c 1
 637 317 l 1
 639 330 641 343 641 355 c 0
 641 488 498 556 366 556 c 0
 188 556 32 449 32 268 c 0
EndSplineSet
EndChar

StartChar: circumflex
Encoding: 710 710 35
Width: 469
VWidth: 0
Flags: HW
LayerCount: 2
Fore
SplineSet
130 594 m 1
 232 652 l 1
 334 594 l 1
 425 594 l 1
 290 718 l 1
 174 718 l 1
 39 594 l 1
 130 594 l 1
EndSplineSet
EndChar

StartChar: colon
Encoding: 58 58 36
Width: 309
VWidth: 0
Flags: HW
LayerCount: 2
Fore
SplineSet
247 556 m 1
 61 556 l 1
 61 385 l 1
 247 385 l 1
 247 556 l 1
247 214 m 1
 61 214 l 1
 61 43 l 1
 247 43 l 1
 247 214 l 1
EndSplineSet
EndChar

StartChar: comma
Encoding: 44 44 37
Width: 296
VWidth: 0
Flags: HW
LayerCount: 2
Fore
SplineSet
58 -160 m 1
 127 -160 244 -126 244 12 c 2
 244 171 l 1
 58 171 l 1
 58 0 l 1
 127 0 l 1
 127 -22 124 -41 58 -63 c 1
 58 -160 l 1
EndSplineSet
EndChar

StartChar: d
Encoding: 100 100 38
Width: 686
VWidth: 0
Flags: W
HStem: -23 116<261.814 382.8> 440 116<265.259 381.589>
VStem: 34 183<146.284 381.21> 439 181<150.125 387.064>
LayerCount: 2
Fore
SplineSet
217 268 m 0
 217 346 236 440 328 440 c 0
 422 440 439 348 439 268 c 0
 439 187 421 93 324 93 c 0
 224 93 217 201 217 268 c 0
34 270 m 0
 34 41 164 -23 291 -23 c 0
 368 -23 448 24 477 91 c 1
 497 0 l 1
 620 0 l 1
 620 731 l 1
 457 731 l 1
 457 463 l 1
 418 531 353 556 278 556 c 0
 156 556 34 455 34 270 c 0
EndSplineSet
EndChar

StartChar: e
Encoding: 101 101 39
Width: 697
VWidth: 0
Flags: W
HStem: -23 111<287.214 456.194> 448 108<285.85 425.947>
VStem: 32 190<157.918 235 314 375.012>
LayerCount: 2
Fore
SplineSet
32 268 m 0
 32 64 170 -23 368 -23 c 0
 472 -23 650 19 650 160 c 2
 650 167 l 1
 492 167 l 1
 491 114 433 88 371 88 c 0
 294 88 229 129 222 235 c 1
 654 235 l 1
 654 434 553 556 351 556 c 0
 181 556 32 447 32 268 c 0
224 314 m 1
 227 405 294 448 359 448 c 0
 419 448 472 411 472 331 c 0
 472 326 471 320 471 314 c 1
 224 314 l 1
EndSplineSet
EndChar

StartChar: eight
Encoding: 56 56 41
Width: 716
VWidth: 0
Flags: HW
LayerCount: 2
Fore
SplineSet
654 533 m 0
 654 631 544 731 360 731 c 0
 164 731 66 624 66 517 c 0
 66 434 112 384 173 350 c 1
 77 308 33 244 33 181 c 0
 33 77 156 -23 360 -23 c 0
 575 -23 686 77 686 188 c 0
 686 290 617 345 534 383 c 1
 616 419 654 475 654 533 c 0
492 178 m 0
 492 136 452 93 360 93 c 0
 278 93 230 135 230 189 c 0
 230 226 249 268 302 299 c 1
 400 268 492 245 492 178 c 0
251 539 m 0
 251 577 288 615 360 615 c 0
 435 615 469 576 469 531 c 0
 469 495 446 455 405 430 c 1
 321 458 251 484 251 539 c 0
EndSplineSet
EndChar

StartChar: equal
Encoding: 61 61 42
Width: 540
VWidth: 0
Flags: HW
LayerCount: 2
Fore
SplineSet
484 232 m 1
 57 232 l 1
 57 93 l 1
 484 93 l 1
 484 232 l 1
484 450 m 1
 57 450 l 1
 57 311 l 1
 484 311 l 1
 484 450 l 1
EndSplineSet
EndChar

StartChar: f
Encoding: 102 102 43
Width: 504
VWidth: 0
Flags: HW
HStem: 662 85<271.985 346.47>
VStem: 117 149<553 656.327> 355 129<586.609 654.973>
LayerCount: 2
Fore
SplineSet
352 586 m 1
 469 586 l 1
 479 602 484 618 484 634 c 0
 484 696 427 747 314 747 c 0
 241 747 117 719 117 605 c 2
 117 536 l 1
 22 536 l 1
 22 450 l 1
 116 450 l 1
 116 0 l 1
 292 0 l 1
 292 450 l 1
 441 450 l 1
 441 536 l 1
 298 536 l 1
 275 570 266 598 266 620 c 0
 266 647 288 662 310 662 c 0
 333 662 355 647 355 614 c 0
 355 606 354 596 352 586 c 1
EndSplineSet
EndChar

StartChar: g
Encoding: 103 103 44
Width: 695
VWidth: 0
Flags: W
HStem: -194 94<224.504 507.041> -11 160<213.245 509.686> 205 94<257.447 408.936> 462 94<256.644 405.964> 550 21G<411 428.165>
VStem: 25 177<-121.5 -44.5> 44 183<327.742 435.089> 46 113<104 196.997> 438 182<326.357 430.181> 537 133<-73.0638 20.5>
LayerCount: 2
Fore
SplineSet
332 205 m 0xf140
 552 205 620 289 620 381 c 0
 620 452 575 517 457 543 c 1
 586 708 l 1
 450 708 l 1
 425 550 l 1xe980
 397 554 367 556 332 556 c 0
 120 556 44 473 44 381 c 0xf280
 44 328 73 277 135 244 c 1
 86 231 46 183 46 134 c 0xf1
 46 74 84 2 192 -10 c 1
 81 -28 25 -63 25 -97 c 0xf4
 25 -146 131 -194 342 -194 c 0
 594 -194 670 -125 670 -21 c 0
 670 62 618 149 432 149 c 0
 264 149 159 140 159 192 c 0
 159 208 168 222 185 223 c 1
 184 224 l 1
 224 212 273 205 332 205 c 0xf140
332 299 m 0
 263 299 227 336 227 383 c 0
 227 427 261 462 332 462 c 0xf280
 401 462 438 423 438 378 c 0
 438 334 404 299 332 299 c 0
332 -11 m 2
 470 -11 537 -32 537 -52 c 0
 537 -76 472 -100 332 -100 c 0
 248 -100 202 -77 202 -51 c 0xe440
 202 -38 221 -22 263 -11 c 1
 332 -11 l 2
EndSplineSet
EndChar

StartChar: grave
Encoding: 96 96 45
Width: 393
VWidth: 0
Flags: HW
LayerCount: 2
Fore
SplineSet
349 594 m 1
 214 708 l 1
 38 708 l 1
 258 594 l 1
 349 594 l 1
EndSplineSet
EndChar

StartChar: h
Encoding: 104 104 46
Width: 713
VWidth: 0
Flags: W
HStem: 430 126<340.154 506.5>
VStem: 63 181<81 316.662> 469 187<284 400.914>
LayerCount: 2
Fore
SplineSet
63 726 m 1
 63 0 l 1
 244 0 l 1
 244 81 l 2
 244 209 248 430 373 430 c 0
 473 430 469 354 469 284 c 2
 469 0 l 1
 656 0 l 1
 656 356 l 2
 656 503 565 556 448 556 c 0
 352 556 288 520 244 440 c 1
 244 726 l 1
 63 726 l 1
EndSplineSet
EndChar

StartChar: i
Encoding: 105 105 47
Width: 310
VWidth: 0
Flags: W
VStem: 63 181
LayerCount: 2
Fore
SplineSet
63 537 m 1
 63 0 l 1
 244 0 l 1
 244 537 l 1
 63 537 l 1
244 731 m 1
 63 731 l 1
 63 597 l 1
 244 597 l 1
 244 731 l 1
EndSplineSet
EndChar

StartChar: j
Encoding: 106 106 48
Width: 441
VWidth: 0
Flags: HW
LayerCount: 2
Fore
SplineSet
149 31 m 1
 32 31 l 1
 22 15 17 -1 17 -17 c 0
 17 -79 67 -130 187 -130 c 0
 256 -130 375 -102 375 12 c 2
 375 537 l 1
 199 537 l 1
 199 107 l 2
 199 88 206 47 206 13 c 0
 206 -20 200 -45 176 -45 c 0
 156 -45 146 -28 146 3 c 0
 146 11 147 22 149 31 c 1
378 731 m 1
 197 731 l 1
 197 597 l 1
 378 597 l 1
 378 731 l 1
EndSplineSet
EndChar

StartChar: k
Encoding: 107 107 49
Width: 706
VWidth: 0
Flags: W
LayerCount: 2
Fore
SplineSet
244 0 m 1
 244 126 l 1
 334 217 l 1
 468 0 l 1
 679 0 l 1
 458 314 l 1
 679 537 l 1
 448 537 l 1
 244 319 l 1
 244 731 l 1
 63 731 l 1
 63 0 l 1
 244 0 l 1
EndSplineSet
EndChar

StartChar: l
Encoding: 108 108 50
Width: 310
VWidth: 0
Flags: W
VStem: 63 181
LayerCount: 2
Fore
SplineSet
244 0 m 1
 244 731 l 1
 63 731 l 1
 63 0 l 1
 244 0 l 1
EndSplineSet
EndChar

StartChar: m
Encoding: 109 109 51
Width: 1078
VWidth: 0
Flags: W
HStem: 430 126<313.071 465 704.927 871.5>
VStem: 56 181<81 323.085> 442 187<122 324.375> 834 187<284 400.914>
LayerCount: 2
Fore
SplineSet
56 536 m 1
 56 0 l 1
 237 0 l 1
 237 81 l 2
 237 209 241 430 356 430 c 0
 446 430 442 354 442 284 c 2
 442 0 l 1
 629 0 l 1
 629 122 l 2
 629 251 645 430 748 430 c 0
 838 430 834 354 834 284 c 2
 834 0 l 1
 1021 0 l 1
 1021 356 l 2
 1021 503 930 556 813 556 c 0
 720 556 657 522 613 448 c 1
 583 526 509 556 421 556 c 0
 325 556 261 520 217 440 c 1
 187 536 l 1
 56 536 l 1
EndSplineSet
EndChar

StartChar: mu
Encoding: 181 181 52
AltUni2: 0003bc.ffffffff.0
Width: 719
VWidth: 0
Flags: HW
LayerCount: 2
Fore
SplineSet
34 -100 m 2
 34 -161 81 -188 126 -188 c 0
 171 -188 214 -163 214 -116 c 0
 214 -109 213 -101 211 -93 c 2
 170 61 l 1
 196 1 242 -23 290 -23 c 0
 364 -23 444 33 466 95 c 1
 516 0 l 1
 627 0 l 1
 627 536 l 1
 446 536 l 1
 446 278 l 2
 446 214 442 99 317 99 c 0
 217 99 221 175 221 245 c 2
 221 536 l 1
 34 536 l 1
 34 -100 l 2
EndSplineSet
EndChar

StartChar: n
Encoding: 110 110 53
Width: 706
VWidth: 0
Flags: W
HStem: 430 126<320.747 499.5>
VStem: 56 181<81 316.662> 462 187<284 400.914>
LayerCount: 2
Fore
SplineSet
56 536 m 1
 56 0 l 1
 237 0 l 1
 237 81 l 2
 237 209 241 430 366 430 c 0
 466 430 462 354 462 284 c 2
 462 0 l 1
 649 0 l 1
 649 356 l 2
 649 503 558 556 441 556 c 0
 335 556 265 520 217 440 c 1
 187 536 l 1
 56 536 l 1
EndSplineSet
EndChar

StartChar: o
Encoding: 111 111 54
Width: 741
VWidth: 0
Flags: W
HStem: -23 116<292.195 439.805> 440 116<292.195 439.805>
VStem: 31 199<160.782 372.65> 502 199<160.782 372.65>
LayerCount: 2
Fore
SplineSet
366 93 m 0
 261 93 230 176 230 268 c 0
 230 356 261 440 366 440 c 0
 471 440 502 356 502 268 c 0
 502 176 471 93 366 93 c 0
366 -23 m 0
 541 -23 701 77 701 268 c 0
 701 454 541 556 366 556 c 0
 191 556 31 454 31 268 c 0
 31 77 191 -23 366 -23 c 0
EndSplineSet
EndChar

StartChar: oe
Encoding: 339 339 55
Width: 1158
VWidth: 0
Flags: HW
LayerCount: 2
Fore
SplineSet
356 -23 m 0
 442 -23 524 0 586 46 c 1
 646 -1 729 -23 829 -23 c 0
 933 -23 1111 19 1111 160 c 2
 1111 167 l 1
 953 167 l 1
 952 114 894 88 832 88 c 0
 761 88 701 122 686 210 c 1
 689 235 l 1
 1115 235 l 1
 1115 434 1014 556 812 556 c 0
 729 556 650 521 592 462 c 1
 532 522 451 556 366 556 c 0
 191 556 31 454 31 268 c 0
 31 77 186 -23 356 -23 c 0
366 93 m 0
 261 93 230 176 230 268 c 0
 230 356 261 440 366 440 c 0
 463 440 492 356 492 268 c 0
 492 176 463 93 366 93 c 0
820 448 m 0
 880 448 933 411 933 331 c 0
 933 326 932 320 932 314 c 1
 687 314 l 1
 687 317 686 321 686 325 c 0
 694 408 757 448 820 448 c 0
EndSplineSet
EndChar

StartChar: one
Encoding: 49 49 56
Width: 460
VWidth: 0
Flags: HW
LayerCount: 2
Fore
SplineSet
397 0 m 1
 397 708 l 1
 201 708 l 1
 34 638 l 1
 34 498 l 1
 201 568 l 1
 201 0 l 1
 397 0 l 1
EndSplineSet
EndChar

StartChar: p
Encoding: 112 112 57
Width: 685
VWidth: 0
Flags: W
HStem: -23 126<293.411 411.609> 430 126<296.321 415.488>
VStem: 56 181<152.985 376> 459 183<158.715 383.103>
LayerCount: 2
Fore
SplineSet
642 263 m 0
 642 492 512 556 385 556 c 0
 308 556 228 506 199 439 c 1
 179 536 l 1
 56 536 l 1
 56 -177 l 1
 219 -177 l 1
 219 70 l 1
 258 2 319 -23 394 -23 c 0
 516 -23 642 78 642 263 c 0
459 265 m 0
 459 192 440 103 348 103 c 0
 254 103 237 190 237 265 c 0
 237 341 255 430 352 430 c 0
 452 430 459 328 459 265 c 0
EndSplineSet
EndChar

StartChar: parenleft
Encoding: 40 40 58
Width: 441
VWidth: 0
Flags: HW
LayerCount: 2
Fore
SplineSet
405 44 m 1
 301 44 248 193 248 341 c 0
 248 490 301 639 405 639 c 1
 405 734 l 1
 157 734 32 537 32 341 c 0
 32 144 157 -52 405 -52 c 1
 405 44 l 1
EndSplineSet
EndChar

StartChar: parenright
Encoding: 41 41 59
Width: 441
VWidth: 0
Flags: HW
LayerCount: 2
Fore
SplineSet
39 -52 m 1
 287 -52 412 144 412 341 c 0
 412 537 287 734 39 734 c 1
 39 639 l 1
 143 639 196 490 196 341 c 0
 196 193 143 44 39 44 c 1
 39 -52 l 1
EndSplineSet
EndChar

StartChar: percent
Encoding: 37 37 60
Width: 1232
VWidth: 0
Flags: HW
LayerCount: 2
Fore
SplineSet
251 643 m 0
 304 643 333 589 333 497 c 0
 333 407 306 356 251 356 c 0
 196 356 169 407 169 497 c 0
 169 589 198 643 251 643 c 0
251 268 m 0
 396 268 470 385 470 501 c 0
 470 616 398 731 251 731 c 0
 104 731 32 616 32 501 c 0
 32 385 106 268 251 268 c 0
359 -40 m 1
 515 -40 l 1
 865 750 l 1
 709 750 l 1
 359 -40 l 1
982 352 m 0
 1035 352 1064 298 1064 206 c 0
 1064 116 1037 65 982 65 c 0
 927 65 900 116 900 206 c 0
 900 298 929 352 982 352 c 0
982 -23 m 0
 1127 -23 1201 94 1201 210 c 0
 1201 325 1129 440 982 440 c 0
 835 440 763 325 763 210 c 0
 763 94 837 -23 982 -23 c 0
EndSplineSet
EndChar

StartChar: period
Encoding: 46 46 61
Width: 297
VWidth: 0
Flags: W
HStem: 0 171
VStem: 59 186
LayerCount: 2
Fore
SplineSet
245 171 m 1
 59 171 l 1
 59 0 l 1
 245 0 l 1
 245 171 l 1
EndSplineSet
EndChar

StartChar: plus
Encoding: 43 43 62
Width: 565
VWidth: 0
Flags: HW
LayerCount: 2
Fore
SplineSet
32 194 m 1
 207 194 l 1
 207 10 l 1
 366 10 l 1
 366 194 l 1
 539 194 l 1
 539 343 l 1
 366 343 l 1
 366 527 l 1
 207 527 l 1
 207 343 l 1
 32 343 l 1
 32 194 l 1
EndSplineSet
EndChar

StartChar: q
Encoding: 113 113 63
Width: 682
VWidth: 0
Flags: HW
LayerCount: 2
Fore
SplineSet
217 265 m 0
 217 328 224 430 324 430 c 0
 421 430 439 341 439 265 c 0
 439 190 422 103 328 103 c 0
 236 103 217 192 217 265 c 0
34 263 m 0
 34 78 160 -23 282 -23 c 0
 357 -23 418 2 457 70 c 1
 457 -177 l 1
 620 -177 l 1
 620 536 l 1
 497 536 l 1
 477 439 l 1
 448 506 368 556 291 556 c 0
 164 556 34 492 34 263 c 0
EndSplineSet
EndChar

StartChar: quotedblleft
Encoding: 8220 8220 64
Width: 545
VWidth: 0
Flags: HW
LayerCount: 2
Fore
SplineSet
238 731 m 1
 169 731 52 697 52 559 c 2
 52 400 l 1
 238 400 l 1
 238 571 l 1
 169 571 l 1
 169 593 172 612 238 634 c 1
 238 731 l 1
489 731 m 1
 420 731 303 697 303 559 c 2
 303 400 l 1
 489 400 l 1
 489 571 l 1
 420 571 l 1
 420 593 423 612 489 634 c 1
 489 731 l 1
EndSplineSet
EndChar

StartChar: quotedblright
Encoding: 8221 8221 65
Width: 552
VWidth: 0
Flags: HW
LayerCount: 2
Fore
SplineSet
57 377 m 1
 126 377 243 411 243 549 c 2
 243 708 l 1
 57 708 l 1
 57 537 l 1
 126 537 l 1
 126 515 123 496 57 474 c 1
 57 377 l 1
313 377 m 1
 382 377 499 411 499 549 c 2
 499 708 l 1
 313 708 l 1
 313 537 l 1
 382 537 l 1
 382 515 379 496 313 474 c 1
 313 377 l 1
EndSplineSet
EndChar

StartChar: quoteleft
Encoding: 8216 8216 66
Width: 294
VWidth: 0
Flags: HW
LayerCount: 2
Fore
SplineSet
238 731 m 1
 169 731 52 697 52 559 c 2
 52 400 l 1
 238 400 l 1
 238 571 l 1
 169 571 l 1
 169 593 172 612 238 634 c 1
 238 731 l 1
EndSplineSet
EndChar

StartChar: quoteright
Encoding: 8217 8217 67
Width: 296
VWidth: 0
Flags: HW
LayerCount: 2
Fore
SplineSet
57 377 m 1
 126 377 243 411 243 549 c 2
 243 708 l 1
 57 708 l 1
 57 537 l 1
 126 537 l 1
 126 515 123 496 57 474 c 1
 57 377 l 1
EndSplineSet
EndChar

StartChar: r
Encoding: 114 114 68
Width: 608
VWidth: 0
Flags: HW
HStem: 423 133<332.491 475>
VStem: 56 180<94 322.979> 416 147<261.192 406.097>
LayerCount: 2
Fore
SplineSet
56 536 m 1
 56 0 l 1
 236 0 l 1
 236 94 l 2
 236 179 231 423 360 423 c 0
 376 423 416 410 416 335 c 0
 416 314 413 289 406 258 c 1
 540 258 l 1
 554 295 563 341 563 386 c 0
 563 473 528 556 422 556 c 0
 340 556 270 506 236 432 c 1
 236 536 l 1
 56 536 l 1
EndSplineSet
EndChar

StartChar: s
Encoding: 115 115 69
Width: 602
VWidth: 0
Flags: W
HStem: -23 123<215.294 391.913> 436 120<210.224 396.371>
VStem: 52 155<282.367 429.109>
LayerCount: 2
Fore
SplineSet
29 73 m 1
 130 5 230 -23 343 -23 c 0
 447 -23 560 35 560 152 c 0
 560 352 207 322 207 405 c 0
 207 428 234 436 272 436 c 0
 343 436 449 404 495 368 c 1
 549 476 l 1
 462 532 376 554 275 556 c 1
 145 556 52 501 52 381 c 0
 52 189 396 208 396 138 c 0
 396 110 370 100 331 100 c 0
 262 100 160 135 90 178 c 1
 29 73 l 1
EndSplineSet
EndChar

StartChar: semicolon
Encoding: 59 59 70
Width: 311
VWidth: 0
Flags: HW
LayerCount: 2
Fore
SplineSet
63 -117 m 1
 132 -117 249 -83 249 55 c 2
 249 214 l 1
 63 214 l 1
 63 43 l 1
 132 43 l 1
 132 21 129 2 63 -20 c 1
 63 -117 l 1
249 556 m 1
 63 556 l 1
 63 385 l 1
 249 385 l 1
 249 556 l 1
EndSplineSet
EndChar

StartChar: slash
Encoding: 47 47 71
Width: 512
VWidth: 0
Flags: HW
LayerCount: 2
Fore
SplineSet
12 -40 m 1
 208 -40 l 1
 508 750 l 1
 312 750 l 1
 12 -40 l 1
EndSplineSet
EndChar

StartChar: t
Encoding: 116 116 73
Width: 515
VWidth: 0
Flags: W
HStem: -13 99<308.856 475.575>
LayerCount: 2
Fore
SplineSet
115 451 m 1
 115 125 l 2
 115 11 257 -13 327 -13 c 0
 419 -13 476 2 476 2 c 1
 476 93 l 1
 459 90 425 86 390 86 c 0
 343 86 296 97 296 137 c 2
 296 451 l 1
 459 451 l 1
 459 537 l 1
 290 537 l 1
 290 753 l 1
 121 753 l 1
 121 537 l 1
 20 537 l 1
 20 451 l 1
 115 451 l 1
EndSplineSet
EndChar

StartChar: two
Encoding: 50 50 74
Width: 623
VWidth: 0
Flags: HW
LayerCount: 2
Fore
SplineSet
61 158 m 2
 61 0 l 1
 570 0 l 1
 570 140 l 1
 282 140 l 1
 431 224 575 321 575 497 c 0
 575 629 476 731 296 731 c 0
 172 731 41 668 41 538 c 0
 41 523 42 507 47 491 c 1
 205 491 l 1
 203 499 203 506 203 513 c 0
 203 572 248 607 293 607 c 0
 340 607 381 575 381 502 c 0
 381 367 61 164 61 158 c 2
EndSplineSet
EndChar

StartChar: u
Encoding: 117 117 75
Width: 704
VWidth: 0
Flags: W
HStem: -23 122<264.159 378.249>
VStem: 49 187<128.838 245> 461 181<157.708 278>
LayerCount: 2
Fore
SplineSet
642 0 m 1
 642 536 l 1
 461 536 l 1
 461 278 l 2
 461 214 457 99 332 99 c 0
 232 99 236 175 236 245 c 2
 236 536 l 1
 49 536 l 1
 49 197 l 2
 49 36 142 -23 271 -23 c 0
 367 -23 437 15 481 95 c 1
 531 0 l 1
 642 0 l 1
EndSplineSet
EndChar

StartChar: underscore
Encoding: 95 95 76
Width: 510
VWidth: 0
Flags: HW
LayerCount: 2
Fore
SplineSet
457 -110 m 1
 457 0 l 1
 53 0 l 1
 53 -110 l 1
 457 -110 l 1
EndSplineSet
EndChar

StartChar: v
Encoding: 118 118 77
Width: 723
VWidth: 0
Flags: W
LayerCount: 2
Fore
SplineSet
12 537 m 1
 277 -5 l 1
 435 -5 l 1
 698 537 l 1
 531 537 l 1
 374 188 l 1
 219 537 l 1
 12 537 l 1
EndSplineSet
EndChar

StartChar: w
Encoding: 119 119 78
Width: 924
VWidth: 0
Flags: W
LayerCount: 2
Fore
SplineSet
18 537 m 1
 193 -5 l 1
 357 -5 l 1
 457 323 l 1
 560 -5 l 1
 728 -5 l 1
 894 537 l 1
 744 537 l 1
 657 188 l 1
 564 537 l 1
 397 537 l 1
 300 188 l 1
 215 537 l 1
 18 537 l 1
EndSplineSet
EndChar

StartChar: x
Encoding: 120 120 79
Width: 741
VWidth: 0
Flags: W
LayerCount: 2
Fore
SplineSet
32 537 m 1
 264 262 l 1
 20 0 l 1
 210 0 l 1
 354 155 l 1
 486 0 l 1
 716 0 l 1
 474 285 l 1
 709 537 l 1
 522 537 l 1
 385 390 l 1
 261 537 l 1
 32 537 l 1
EndSplineSet
EndChar

StartChar: y
Encoding: 121 121 80
Width: 720
VWidth: 0
Flags: HW
HStem: -238 106<216.947 281.572>
VStem: 62 146<-125.756 -47.3013>
LayerCount: 2
Fore
SplineSet
12 537 m 1
 264 0 l 1
 280 -30 290 -59 290 -81 c 0
 290 -112 277 -132 249 -132 c 0
 226 -132 208 -115 208 -72 c 0
 208 -67 208 -41 209 -36 c 1
 83 -47 l 1
 83 -47 62 -81 62 -115 c 0
 62 -222 175 -238 253 -238 c 0
 445 -238 441 -109 486 5 c 2
 694 537 l 1
 517 537 l 1
 380 142 l 1
 215 537 l 1
 12 537 l 1
EndSplineSet
EndChar

StartChar: z
Encoding: 122 122 81
Width: 594
VWidth: 0
Flags: HW
LayerCount: 2
Fore
SplineSet
42 91 m 1
 42 15 l 2
 42 12 106 2 133 0 c 1
 195 -2 481 -6 542 -6 c 1
 542 91 l 1
 513 94 375 105 345 106 c 0
 334 106 281 105 269 105 c 1
 269 121 l 1
 304 162 463 353 497 394 c 0
 510 409 542 452 542 455 c 1
 544 456 545 488 545 500 c 0
 545 508 544 539 542 545 c 1
 72 561 l 2
 68 561 57 550 57 545 c 0
 56 530 51 462 51 447 c 1
 330 447 l 1
 42 91 l 1
EndSplineSet
EndChar

StartChar: zero
Encoding: 48 48 82
Width: 778
VWidth: 0
Flags: HW
LayerCount: 2
Fore
SplineSet
390 105 m 0
 273 105 246 225 246 348 c 0
 246 474 276 603 390 603 c 0
 504 603 534 474 534 348 c 0
 534 225 507 105 390 105 c 0
390 -23 m 0
 649 -23 747 164 747 351 c 0
 747 541 647 731 390 731 c 0
 133 731 33 541 33 351 c 0
 33 164 131 -23 390 -23 c 0
EndSplineSet
EndChar
